<?xml version="1.0" standalone="no"?>
<!DOCTYPE svg PUBLIC "-//W3C//DTD SVG 20010904//EN"
 "http://www.w3.org/TR/2001/REC-SVG-20010904/DTD/svg10.dtd">
<svg version="1.0" xmlns="http://www.w3.org/2000/svg"
 width="544.000000pt" height="544.000000pt" viewBox="0 0 544.000000 544.000000"
 preserveAspectRatio="xMidYMid meet">
<metadata>
Created by potrace 1.14, written by Peter Selinger 2001-2017
</metadata>
<g transform="translate(0.000000,544.000000) scale(0.100000,-0.100000)"
fill="#000000" stroke="none">
<path d="M1658 5005 c-2 -3 -41 -7 -86 -9 -158 -10 -343 -77 -497 -181 -76
-51 -218 -193 -270 -271 -86 -127 -152 -288 -173 -424 -11 -66 -9 -305 3 -350
3 -14 8 -36 11 -50 14 -74 79 -234 127 -315 32 -54 101 -145 143 -190 40 -43
119 -129 213 -234 13 -14 49 -53 80 -86 31 -34 97 -105 146 -159 50 -54 104
-113 120 -130 17 -18 75 -81 130 -141 55 -60 125 -134 155 -166 171 -180 222
-234 285 -304 39 -44 79 -89 90 -101 97 -106 176 -193 205 -224 19 -21 78 -84
130 -140 105 -114 111 -120 290 -310 313 -333 431 -426 621 -489 79 -26 248
-62 259 -56 5 3 11 2 14 -3 13 -22 249 2 346 35 25 8 53 16 62 18 26 6 239
113 278 141 91 65 154 128 266 267 8 9 33 54 57 100 86 163 117 313 112 532
-2 77 -6 151 -9 165 -4 14 -9 40 -12 59 -9 56 -59 181 -97 246 -34 57 -73 107
-175 223 -26 29 -56 63 -67 76 -25 28 -151 168 -185 206 -14 15 -59 65 -100
111 -75 83 -200 219 -229 250 -9 9 -54 58 -101 109 -100 110 -247 265 -309
327 -38 38 -46 41 -60 30 -9 -8 -23 -17 -31 -21 -8 -4 -3 3 13 16 30 27 32 34
15 52 -7 7 -58 62 -113 121 -55 60 -111 120 -125 135 -14 14 -58 62 -99 106
-686 740 -771 824 -916 904 -64 35 -162 72 -225 85 -94 20 -133 26 -197 30
-41 2 -77 6 -82 9 -4 3 -10 3 -13 1z"/>
</g>
</svg>
