<svg width="50" height="50" viewBox="0 0 58 60" fill="none" xmlns="http://www.w3.org/2000/svg">
<path d="M8.44378 9.08073C13.0654 4.61504 20.4322 4.74146 24.8979 9.36311L37.0267 21.9155L20.2902 38.0872L8.16139 25.5348C3.69569 20.9132 3.82213 13.5464 8.44378 9.08073V9.08073Z" fill="#87C4FF"/>
<path d="M37.0269 21.9154L49.1557 34.4678C53.6213 39.0894 53.4949 46.4562 48.8733 50.9219V50.9219C44.2516 55.3875 36.8849 55.2611 32.4192 50.6395L20.2904 38.0871L37.0269 21.9154Z" fill="#FF9292"/>
<path d="M8.44378 9.08073C13.0654 4.61504 20.4322 4.74146 24.8979 9.36311L37.0267 21.9155L20.2902 38.0872L8.16139 25.5348C3.69569 20.9132 3.82213 13.5464 8.44378 9.08073V9.08073Z" fill="#87C4FF"/>
<path d="M37.0269 21.9154L49.1557 34.4678C53.6213 39.0894 53.4949 46.4562 48.8733 50.9219V50.9219C44.2516 55.3875 36.8849 55.2611 32.4192 50.6395L20.2904 38.0871L37.0269 21.9154Z" fill="#FF9292"/>
<path d="M8.44378 9.08073C13.0654 4.61504 20.4322 4.74146 24.8979 9.36311L37.0267 21.9155L20.2902 38.0872L8.16139 25.5348C3.69569 20.9132 3.82213 13.5464 8.44378 9.08073V9.08073Z" fill="#87C4FF"/>
<path d="M37.0269 21.9154L49.1557 34.4678C53.6213 39.0894 53.4949 46.4562 48.8733 50.9219V50.9219C44.2516 55.3875 36.8849 55.2611 32.4192 50.6395L20.2904 38.0871L37.0269 21.9154Z" fill="#FF9292"/>
</svg>
