<svg id="e0ItX8Ebq1R1" xmlns="http://www.w3.org/2000/svg" xmlns:xlink="http://www.w3.org/1999/xlink" viewBox="0 0 272 252" shape-rendering="geometricPrecision" text-rendering="geometricPrecision"><path d="M133.329,118.271c-20.994,19.376-38.207,35.484-38.25,35.795-.1.719,40.269,44.55,51.74,56.177c11.694,11.854,19.6,15.897,35.681,18.249c12.592,1.842,30.799-4.951,41.23-15.382C234.131,202.709,239,190.692,239,175.424c0-10.805-2.25-19.262-7.216-27.12-3.211-5.08-58.194-65.325-59.582-65.283-.386.012-17.879,15.874-38.873,35.25" fill="#ff9292" fill-rule="evenodd"/><path d="M69,13.888c-9.359,3.029-16.192,7.119-22.598,13.525-20.105,20.105-20.628,51.619-1.215,73.192c7.129,7.922,42.268,46.038,46.33,50.255l3.237,3.361l34.873-32.236c19.18-17.73,36.613-33.926,38.739-35.991l3.866-3.755-25.013-26.943c-27.428-29.547-32.406-34.329-39.452-37.908-10.868-5.521-27.801-7.05-38.767-3.5" fill="#7ccce4" fill-rule="evenodd"/></svg>
